<svg style="height: 100%;" version="1.1" id="Layer_1" xmlns="http://www.w3.org/2000/svg" xmlns:xlink="http://www.w3.org/1999/xlink" x="0px" y="0px"
viewBox="0 0 31.2 20.9" xml:space="preserve">
<style type="text/css">
.st0{ fill:#005BA8; }
</style>
<title>marketplace</title>
<path class="st0" d="M30.6,5.2h-2c-0.6,0-1.2,0.2-1.7,0.7l-1.7-4.7c-0.3-0.7-1-1.2-1.8-1.2H7.7C6.9,0,6.2,0.5,5.9,1.2L4.1,5.9
c-0.4-0.4-1-0.6-1.7-0.7h-2C0,5.2-0.3,5.5-0.2,5.9c0,1.1,0.9,2,2,2c0.4,0,0.7,0.3,0.7,0.6l0,0v11.8c0,0.4,0.3,0.7,0.6,0.7l0,0H7
c0.4,0,0.7-0.3,0.7-0.6v-2h15.8v2c0,0.4,0.3,0.6,0.6,0.6H28c0.4,0,0.6-0.3,0.6-0.6V8.5c0-0.4,0.3-0.7,0.7-0.7c1.1,0,2-0.9,2-2
C31.3,5.5,31,5.2,30.6,5.2L30.6,5.2z M8.2,2.6h14.7l2,5.2H6.2L8.2,2.6L8.2,2.6z M7,13.1c-1.1,0-2-0.9-2-2c0-0.4,0.3-0.7,0.7-0.6h2
c1.4,0,2.6,1.2,2.6,2.6H7z M24,13.1h-3.2c0-1.4,1.2-2.6,2.6-2.6l0,0h2c0.4,0,0.6,0.3,0.6,0.6C26.1,12.3,25.2,13.1,24,13.1L24,13.1z"
/>
</svg>