<svg style="height: 100%;" version="1.1" id="Layer_1" xmlns="http://www.w3.org/2000/svg" xmlns:xlink="http://www.w3.org/1999/xlink" x="0px" y="0px"
viewBox="0 0 27.6 27.6" xml:space="preserve">
<style type="text/css">
.st0{fill:#005BA8;}
</style>
<title>floor-planning</title>
<path class="st0" d="M14.7,14.4v3.8c1.3-0.1,2.1-0.8,2.1-1.8l0,0C16.8,15.5,16.4,14.9,14.7,14.4L14.7,14.4z"/>
<path class="st0" d="M11.1,9.5L11.1,9.5c0,0.9,0.4,1.4,2,1.9V7.8C11.8,7.9,11.1,8.6,11.1,9.5z"/>
<path class="st0" d="M25.7,15.2c0.1-0.5,0.1-1,0.1-1.4c0-0.5,0-1-0.1-1.4c0.5-0.2,1-0.4,1.5-0.6l0.3-0.1l-0.1-0.3
c-0.2-0.9-0.4-1.9-0.8-2.7l-0.1-0.3l-0.3,0.1c-0.5,0.1-1.1,0.2-1.6,0.3c-0.4-0.9-0.9-1.7-1.5-2.4c0.3-0.4,0.7-0.9,1-1.3l0.2-0.3
L24,4.4c-0.7-0.7-1.4-1.3-2.1-1.9l-0.3-0.2l-0.2,0.2c-0.4,0.4-0.8,0.7-1.2,1.1c-0.8-0.5-1.7-0.9-2.6-1.2c0-0.5,0.1-1.1,0.1-1.6V0.5
l-0.3-0.1c-1.1-0.2-2-0.4-3-0.4H14v0.3c-0.1,0.5-0.2,1-0.4,1.5c-1,0-2,0.1-2.9,0.4c-0.2-0.5-0.5-0.9-0.8-1.3L9.8,0.6L9.5,0.7
C8.6,1,7.7,1.4,6.8,1.9L6.6,2.1l0.1,0.3C6.8,2.9,7,3.3,7.2,3.8C6.3,4.3,5.6,5,4.9,5.7C4.4,5.5,4,5.3,3.6,5.1L3.3,4.9L3,5.2
C2.5,5.9,1.9,6.7,1.5,7.6L1.3,7.9l0.3,0.2C2,8.4,2.4,8.7,2.8,9C2.3,9.9,2,10.9,1.9,11.9c-0.5,0-1,0.1-1.4,0.1H0.2v0.3
c-0.1,0.9-0.1,1.9,0,2.9v0.3h0.3c0.5,0.1,1,0.1,1.4,0.1c0.2,1,0.4,2,0.9,2.9c-0.4,0.3-0.8,0.6-1.1,0.9l-0.3,0.2l0.1,0.3
c0.4,0.9,0.9,1.7,1.5,2.5l0.2,0.3l0.3-0.1c0.4-0.2,0.9-0.4,1.3-0.7c0.7,0.7,1.4,1.4,2.3,1.9c-0.2,0.5-0.3,0.9-0.5,1.4l-0.1,0.3
l0.3,0.2c0.8,0.5,1.7,0.9,2.6,1.2L9.7,27l0.2-0.3c0.3-0.4,0.5-0.9,0.8-1.3c1,0.3,1.9,0.4,2.9,0.4c0.1,0.5,0.2,1,0.4,1.5l0.1,0.3h0.3
c1,0,1.9-0.2,2.8-0.4l0.3-0.1v-0.4c0-0.5,0-1-0.1-1.6c0.9-0.3,1.8-0.7,2.7-1.2c0.4,0.4,0.8,0.8,1.1,1.1l0.2,0.2l0.3-0.2
c0.8-0.6,1.5-1.2,2.2-1.9l0.2-0.2L24,22.7c-0.3-0.5-0.6-0.9-1-1.3c0.6-0.7,1.2-1.5,1.6-2.4c0.5,0.1,1.1,0.2,1.6,0.3h0.3l0.1-0.3
c0.4-0.9,0.6-1.8,0.8-2.7l0.1-0.3l-0.3-0.1C26.8,15.7,26.2,15.5,25.7,15.2L25.7,15.2z M18.9,16.1c0,2.1-1.7,3.5-4.1,3.7v1.9h-1.7
v-1.9c-1.7-0.2-3.3-0.9-4.6-1.9l1.2-1.8c1,0.9,2.2,1.4,3.4,1.7V14C10.3,13.3,9,12.2,9,10l0,0c0-2.1,1.6-3.5,4.1-3.7V5.2h1.7v1.2
c1.3,0.2,2.6,0.7,3.6,1.5l-1.1,1.8c-0.8-0.6-1.7-1-2.6-1.2v3.7C17.6,12.8,18.9,14,18.9,16.1L18.9,16.1L18.9,16.1z"/>
</svg>