<svg style="height: 100%;" version="1.1" id="Layer_1" xmlns="http://www.w3.org/2000/svg" xmlns:xlink="http://www.w3.org/1999/xlink" x="0px" y="0px"
viewBox="0 0 24.7 28.8" xml:space="preserve">
<style type="text/css">
 .st0{fill:#005BA8;}
</style>
<title>logistics</title>
<path class="st0" d="M23.5,23.5v-4.4c0-0.9-0.8-1.7-1.7-1.7l0,0h-0.5V1.2c0-0.1-0.1-0.3-0.2-0.4L20,0.1C19.8,0,19.5,0,19.4,0.2
 c0,0.1-0.1,0.2-0.1,0.2v5.2L19,4.7c-0.4-1.2-1.6-2-2.8-2H8.7c-1.3,0-2.4,0.8-2.8,2L5.5,5.6V0.4C5.6,0.2,5.4,0,5.1,0C5,0,5,0,4.9,0.1
 L3.8,0.8C3.7,0.9,3.6,1,3.6,1.2v16.2H3.1c-0.9,0-1.7,0.8-1.7,1.7l0,0v4.4H0.7c-0.2,0-0.4,0.2-0.4,0.4l0,0v2.4c0,0.2,0.2,0.4,0.4,0.4
 l0,0h1.9V28c0,0.5,0.4,0.9,0.9,0.9h2.3c0.5,0,0.9-0.4,0.9-0.9v-1.2h11.9v1.1c0,0.5,0.4,0.9,0.9,0.9h2.3c0.5,0,0.9-0.4,0.9-0.9l0,0
 v-1.1h1.9c0.2,0,0.4-0.2,0.4-0.4l0,0V24c0-0.2-0.2-0.4-0.4-0.4L23.5,23.5z M6.1,8h12.7v4.2H6.1V8z M5.8,22.3H4.3
 c-0.5,0-0.8-0.4-0.8-0.8l0,0c0-0.5,0.4-0.8,0.8-0.8h1.5c0.5,0,0.8,0.4,0.8,0.8l0,0C6.6,21.9,6.3,22.3,5.8,22.3z M15.4,22.5H9.5
 c-0.5,0-0.9-0.4-0.9-0.9l0,0v-5.4c0-0.5,0.4-0.9,0.9-0.9h5.9c0.5,0,0.9,0.4,0.9,0.9l0,0v5.5C16.3,22.2,15.9,22.6,15.4,22.5
 C15.4,22.6,15.4,22.6,15.4,22.5L15.4,22.5z M20.6,22.3h-1.5c-0.5,0-0.8-0.4-0.8-0.8l0,0c0-0.5,0.4-0.8,0.8-0.8h1.5
 c0.5,0,0.8,0.4,0.8,0.8l0,0C21.4,21.9,21.1,22.3,20.6,22.3z M15.3,18.5H9.7c-0.2,0-0.4-0.2-0.4-0.4l0,0l0,0c0-0.2,0.2-0.4,0.4-0.4
 l0,0h5.6c0.2,0,0.4,0.2,0.4,0.4l0,0C15.7,18.3,15.5,18.5,15.3,18.5L15.3,18.5z M15.3,16.8H9.7c-0.2,0-0.4-0.2-0.4-0.4l0,0l0,0
 c0-0.2,0.2-0.4,0.4-0.4l0,0h5.6c0.2,0,0.4,0.2,0.4,0.4l0,0l0,0C15.7,16.6,15.5,16.8,15.3,16.8z M15.3,21.9H9.7
 c-0.2,0-0.4-0.2-0.4-0.4l0,0l0,0c0-0.2,0.2-0.4,0.4-0.4l0,0h5.6c0.2,0,0.4,0.2,0.4,0.4l0,0l0,0C15.7,21.7,15.5,21.9,15.3,21.9
 L15.3,21.9z M15.3,20.2H9.7c-0.2,0-0.4-0.2-0.4-0.4l0,0l0,0c0-0.2,0.2-0.4,0.4-0.4l0,0h5.6c0.2,0,0.4,0.2,0.4,0.4l0,0l0,0
 C15.7,20,15.5,20.2,15.3,20.2L15.3,20.2z"/>
</svg>