<svg style="height: 100%;" version="1.1" id="Layer_1" xmlns="http://www.w3.org/2000/svg" xmlns:xlink="http://www.w3.org/1999/xlink" x="0px" y="0px"
	 viewBox="0 0 25.3 27.1" xml:space="preserve">
	<style type="text/css">
		.st0{fill:#005BA8;}
	</style>
	<title>reconditioning</title>
	<path class="st0" d="M23.9,19.2h-9.6v7.9h-3.5v-7.9H1.2v-1.8h22.7C23.9,17.4,23.9,19.2,23.9,19.2z M25.2,4.7c0,0.9-0.7,1.6-1.6,1.6
		c-0.3,0-0.5,0.2-0.5,0.5l0,0v9.4c0,0.3-0.2,0.5-0.5,0.5l0,0h-3.1c-0.3,0-0.5-0.2-0.5-0.5l0,0v-1.6H6.3v1.6c0,0.3-0.2,0.5-0.5,0.5
		l0,0H2.6c-0.3,0-0.5-0.2-0.5-0.5l0,0V6.8c0-0.3-0.2-0.5-0.5-0.5l0,0C0.7,6.3,0,5.6,0,4.7c0-0.3,0.2-0.5,0.5-0.5h1.6
		c0.5,0,1,0.2,1.4,0.5L4.9,1c0.2-0.6,0.8-1,1.4-1h12.6c0.6,0,1.2,0.4,1.4,1l1.4,3.7c0.4-0.3,0.9-0.5,1.4-0.5h1.6
		C24.9,4.2,25.2,4.4,25.2,4.7L25.2,4.7L25.2,4.7z M5.2,6.3H20l-1.5-4.2H6.7L5.2,6.3L5.2,6.3z M8.4,10.5c0-1.2-0.9-2.1-2.1-2.1l0,0
		H4.7c-0.3,0-0.5,0.2-0.5,0.5l0,0c0,0.9,0.7,1.6,1.6,1.6l0,0H8.4z M21,8.9c0-0.3-0.2-0.5-0.5-0.5l0,0h-1.6c-1.2,0-2.1,0.9-2.1,2.1
		l0,0h2.6C20.3,10.5,21,9.8,21,8.9L21,8.9z"/>
</svg>