<?xml version="1.0" encoding="utf-8"?>
<!-- Generator: Adobe Illustrator 26.1.0, SVG Export Plug-In . SVG Version: 6.00 Build 0)  -->
<svg width="100" height="100" viewBox="0 0 100 100" fill="none" xmlns="http://www.w3.org/2000/svg">
<g clip-path="url(#clip0_7056_2663)">
<path d="M7.29366 61.4203C0.95969 37.8119 14.9712 13.4357 38.5797 7.10171C62.1881 0.767736 86.5643 14.7793 92.8983 38.3877C99.2323 61.9961 85.2207 86.3723 61.6123 92.7063C37.8119 99.2322 13.6276 85.0288 7.29366 61.4203ZM1.72744 62.9558C8.82917 89.6353 36.2764 105.374 62.9559 98.2725C89.6353 91.1708 105.374 63.7236 98.2726 37.0441C91.1708 10.3647 63.7236 -5.3743 37.0441 1.72743C10.3647 8.82916 -5.37428 36.2764 1.72744 62.9558Z" fill="#003468"/>
<path d="M14.9712 50.6718C15.1631 55.8541 16.3148 60.8445 18.4261 65.2591L22.8407 27.8311C17.6583 34.1651 14.7793 42.0346 14.9712 50.6718Z" fill="#003468"/>
<path d="M59.6929 16.3148C56.4299 15.3551 52.975 14.9712 49.3282 14.9712C46.4491 14.9712 43.5701 15.547 40.691 16.1228L50.8637 47.7927L59.6929 16.3148Z" fill="#003468"/>
<path d="M77.5432 28.2149L82.3416 63.9155C84.261 59.5009 85.2207 54.5105 85.2207 49.3281C85.0288 41.2667 82.1497 33.9731 77.5432 28.2149Z" fill="#003468"/>
<path d="M55.4702 82.5336H47.4088L34.7409 44.1459L32.2457 80.4223C37.62 83.4933 43.9539 85.2208 50.4798 85.2208C57.7735 85.0288 64.6833 82.7256 70.2495 78.6948L66.6027 42.2265L55.4702 82.5336Z" fill="#003468"/>
</g>
<defs>
<clipPath id="clip0_7056_2663">
<rect width="100" height="100" fill="white"/>
</clipPath>
</defs>
</svg>